%TF.GenerationSoftware,KiCad,Pcbnew,6.0.2+dfsg-1*%
%TF.CreationDate,2024-03-03T12:29:16-06:00*%
%TF.ProjectId,rc-duino,72632d64-7569-46e6-9f2e-6b696361645f,rev?*%
%TF.SameCoordinates,Original*%
%TF.FileFunction,Soldermask,Top*%
%TF.FilePolarity,Negative*%
%FSLAX46Y46*%
G04 Gerber Fmt 4.6, Leading zero omitted, Abs format (unit mm)*
G04 Created by KiCad (PCBNEW 6.0.2+dfsg-1) date 2024-03-03 12:29:16*
%MOMM*%
%LPD*%
G01*
G04 APERTURE LIST*
G04 Aperture macros list*
%AMRoundRect*
0 Rectangle with rounded corners*
0 $1 Rounding radius*
0 $2 $3 $4 $5 $6 $7 $8 $9 X,Y pos of 4 corners*
0 Add a 4 corners polygon primitive as box body*
4,1,4,$2,$3,$4,$5,$6,$7,$8,$9,$2,$3,0*
0 Add four circle primitives for the rounded corners*
1,1,$1+$1,$2,$3*
1,1,$1+$1,$4,$5*
1,1,$1+$1,$6,$7*
1,1,$1+$1,$8,$9*
0 Add four rect primitives between the rounded corners*
20,1,$1+$1,$2,$3,$4,$5,0*
20,1,$1+$1,$4,$5,$6,$7,0*
20,1,$1+$1,$6,$7,$8,$9,0*
20,1,$1+$1,$8,$9,$2,$3,0*%
%AMRotRect*
0 Rectangle, with rotation*
0 The origin of the aperture is its center*
0 $1 length*
0 $2 width*
0 $3 Rotation angle, in degrees counterclockwise*
0 Add horizontal line*
21,1,$1,$2,0,0,$3*%
G04 Aperture macros list end*
%ADD10R,1.700000X1.700000*%
%ADD11O,1.700000X1.700000*%
%ADD12RoundRect,0.250000X-0.600000X-0.600000X0.600000X-0.600000X0.600000X0.600000X-0.600000X0.600000X0*%
%ADD13C,1.700000*%
%ADD14RoundRect,0.250000X0.600000X-0.600000X0.600000X0.600000X-0.600000X0.600000X-0.600000X-0.600000X0*%
%ADD15RoundRect,0.150000X0.150000X-0.875000X0.150000X0.875000X-0.150000X0.875000X-0.150000X-0.875000X0*%
%ADD16RoundRect,0.250000X-0.412500X-0.650000X0.412500X-0.650000X0.412500X0.650000X-0.412500X0.650000X0*%
%ADD17RotRect,0.279400X1.435100X135.000000*%
%ADD18RotRect,0.279400X1.435100X45.000000*%
%ADD19RoundRect,0.250000X-0.167938X0.751301X-0.751301X0.167938X0.167938X-0.751301X0.751301X-0.167938X0*%
%ADD20RoundRect,0.250000X-0.650000X0.412500X-0.650000X-0.412500X0.650000X-0.412500X0.650000X0.412500X0*%
%ADD21R,1.700000X1.000000*%
%ADD22C,1.600000*%
%ADD23O,2.000000X2.000000*%
%ADD24RoundRect,0.250000X-0.751301X-0.167938X-0.167938X-0.751301X0.751301X0.167938X0.167938X0.751301X0*%
%ADD25R,1.701800X0.533400*%
%ADD26C,1.500000*%
%ADD27RoundRect,0.250000X-0.400000X-0.625000X0.400000X-0.625000X0.400000X0.625000X-0.400000X0.625000X0*%
%ADD28RoundRect,0.250000X0.400000X0.625000X-0.400000X0.625000X-0.400000X-0.625000X0.400000X-0.625000X0*%
%ADD29RoundRect,0.250000X0.707107X0.176777X0.176777X0.707107X-0.707107X-0.176777X-0.176777X-0.707107X0*%
%ADD30C,1.574800*%
%ADD31RoundRect,0.250000X0.600000X0.600000X-0.600000X0.600000X-0.600000X-0.600000X0.600000X-0.600000X0*%
%ADD32R,1.600000X1.600000*%
%ADD33RoundRect,0.250000X0.167938X-0.751301X0.751301X-0.167938X-0.167938X0.751301X-0.751301X0.167938X0*%
%ADD34RoundRect,0.250000X0.412500X0.650000X-0.412500X0.650000X-0.412500X-0.650000X0.412500X-0.650000X0*%
%ADD35R,1.168400X0.355600*%
G04 APERTURE END LIST*
D10*
%TO.C,J2*%
X108686600Y-40594006D03*
D11*
X111226600Y-40594006D03*
X113766600Y-40594006D03*
X116306600Y-40594006D03*
X118846600Y-40594006D03*
X121386600Y-40594006D03*
%TD*%
D12*
%TO.C,J8*%
X152564188Y-73106006D03*
D13*
X155104188Y-73106006D03*
X152564188Y-75646006D03*
X155104188Y-75646006D03*
X152564188Y-78186006D03*
X155104188Y-78186006D03*
%TD*%
D14*
%TO.C,J5*%
X72808188Y-43134006D03*
D13*
X72808188Y-40594006D03*
X75348188Y-43134006D03*
X75348188Y-40594006D03*
X77888188Y-43134006D03*
X77888188Y-40594006D03*
X80428188Y-43134006D03*
X80428188Y-40594006D03*
%TD*%
D15*
%TO.C,U5*%
X102158800Y-65318506D03*
X103428800Y-65318506D03*
X104698800Y-65318506D03*
X105968800Y-65318506D03*
X107238800Y-65318506D03*
X108508800Y-65318506D03*
X109778800Y-65318506D03*
X111048800Y-65318506D03*
X112318800Y-65318506D03*
X113588800Y-65318506D03*
X113588800Y-56018506D03*
X112318800Y-56018506D03*
X111048800Y-56018506D03*
X109778800Y-56018506D03*
X108508800Y-56018506D03*
X107238800Y-56018506D03*
X105968800Y-56018506D03*
X104698800Y-56018506D03*
X103428800Y-56018506D03*
X102158800Y-56018506D03*
%TD*%
D16*
%TO.C,C13*%
X105510800Y-53263800D03*
X108635800Y-53263800D03*
%TD*%
D17*
%TO.C,U2*%
X78913720Y-63796891D03*
X79267275Y-64150446D03*
X79620827Y-64503999D03*
X79974380Y-64857551D03*
X80327934Y-65211105D03*
X80681487Y-65564658D03*
X81035042Y-65918213D03*
X81388594Y-66271766D03*
X81742147Y-66625318D03*
X82095701Y-66978872D03*
X82449254Y-67332425D03*
X82802807Y-67685978D03*
X83156361Y-68039533D03*
X83509914Y-68393085D03*
X83863469Y-68746640D03*
X84217022Y-69100193D03*
X84570574Y-69453745D03*
X84924128Y-69807300D03*
X85277681Y-70160852D03*
X85631236Y-70514407D03*
X85984789Y-70867960D03*
X86338341Y-71221512D03*
X86691895Y-71575067D03*
X87045448Y-71928619D03*
X87399003Y-72282174D03*
D18*
X89896573Y-72282174D03*
X90250128Y-71928619D03*
X90603681Y-71575067D03*
X90957233Y-71221514D03*
X91310787Y-70867960D03*
X91664340Y-70514407D03*
X92017895Y-70160852D03*
X92371448Y-69807300D03*
X92725000Y-69453747D03*
X93078554Y-69100193D03*
X93432107Y-68746640D03*
X93785662Y-68393085D03*
X94139215Y-68039533D03*
X94492767Y-67685980D03*
X94846322Y-67332425D03*
X95199875Y-66978872D03*
X95553429Y-66625318D03*
X95906982Y-66271766D03*
X96260534Y-65918213D03*
X96614089Y-65564658D03*
X96967642Y-65211105D03*
X97321196Y-64857551D03*
X97674749Y-64503999D03*
X98028301Y-64150446D03*
X98381856Y-63796891D03*
D17*
X98381856Y-61299321D03*
X98028301Y-60945766D03*
X97674749Y-60592213D03*
X97321196Y-60238661D03*
X96967642Y-59885107D03*
X96614089Y-59531554D03*
X96260534Y-59177999D03*
X95906982Y-58824446D03*
X95553429Y-58470894D03*
X95199875Y-58117340D03*
X94846322Y-57763787D03*
X94492767Y-57410232D03*
X94139215Y-57056679D03*
X93785662Y-56703127D03*
X93432107Y-56349572D03*
X93078554Y-55996019D03*
X92725000Y-55642465D03*
X92371448Y-55288912D03*
X92017895Y-54935360D03*
X91664340Y-54581805D03*
X91310787Y-54228252D03*
X90957233Y-53874698D03*
X90603681Y-53521145D03*
X90250128Y-53167593D03*
X89896573Y-52814038D03*
D18*
X87399003Y-52814038D03*
X87045448Y-53167593D03*
X86691895Y-53521145D03*
X86338343Y-53874698D03*
X85984789Y-54228252D03*
X85631236Y-54581805D03*
X85277681Y-54935360D03*
X84924128Y-55288912D03*
X84570576Y-55642465D03*
X84217022Y-55996019D03*
X83863469Y-56349572D03*
X83509914Y-56703127D03*
X83156361Y-57056679D03*
X82802809Y-57410232D03*
X82449254Y-57763787D03*
X82095701Y-58117340D03*
X81742147Y-58470894D03*
X81388594Y-58824446D03*
X81035042Y-59177999D03*
X80681487Y-59531554D03*
X80327934Y-59885107D03*
X79974380Y-60238661D03*
X79620827Y-60592213D03*
X79267275Y-60945766D03*
X78913720Y-61299321D03*
%TD*%
D19*
%TO.C,C4*%
X93054642Y-72797052D03*
X90844934Y-75006760D03*
%TD*%
D20*
%TO.C,C7*%
X146405600Y-78853900D03*
X146405600Y-81978900D03*
%TD*%
D21*
%TO.C,Reset*%
X116358788Y-74313306D03*
X122658788Y-74313306D03*
X116358788Y-78113306D03*
X122658788Y-78113306D03*
%TD*%
D22*
%TO.C,C6*%
X100838000Y-77927200D03*
X105838000Y-77927200D03*
%TD*%
D16*
%TO.C,C8*%
X73559388Y-60846306D03*
X76684388Y-60846306D03*
%TD*%
D23*
%TO.C,J7*%
X129860505Y-66223810D03*
X152707933Y-50954346D03*
X142560505Y-61143810D03*
X147640505Y-40823810D03*
X132400505Y-45903810D03*
X152720498Y-58603810D03*
X140020505Y-43363810D03*
X150180505Y-66223810D03*
X145087940Y-50954346D03*
X155260498Y-56063810D03*
X134940505Y-53523810D03*
X150180505Y-40823810D03*
X127305291Y-50949047D03*
X152720498Y-66223810D03*
X127317856Y-63678511D03*
X157800498Y-63683810D03*
X137480505Y-61143810D03*
X129847940Y-50954346D03*
X127317856Y-40818511D03*
X127317856Y-53518511D03*
X152720498Y-63683810D03*
X145100505Y-48443810D03*
X137480505Y-58603810D03*
X147640505Y-48443810D03*
X140020505Y-40823810D03*
X134940505Y-40823810D03*
X132400505Y-48443810D03*
X145100505Y-66223810D03*
X145100505Y-56063810D03*
X142560505Y-58603810D03*
X129860505Y-45903810D03*
X134940505Y-66223810D03*
X157800498Y-61143810D03*
X152720498Y-53523810D03*
X147640505Y-56063810D03*
X132400505Y-40823810D03*
X157800498Y-40823810D03*
X150180505Y-45903810D03*
X152720498Y-61143810D03*
X140020505Y-45903810D03*
X140020505Y-58603810D03*
X129860505Y-63683810D03*
X145100505Y-45903810D03*
X145100505Y-40823810D03*
X142560505Y-40823810D03*
X155260498Y-45903810D03*
X145100505Y-43363810D03*
X150180505Y-53523810D03*
X137480505Y-45903810D03*
X145100505Y-61143810D03*
X147640505Y-63683810D03*
X127317856Y-58598511D03*
X145100505Y-58603810D03*
X129860505Y-61143810D03*
X147640505Y-58603810D03*
X152720498Y-45903810D03*
X127317856Y-45898511D03*
X142560505Y-43363810D03*
X152720498Y-56063810D03*
X140020505Y-56063810D03*
X140020505Y-63683810D03*
X140020505Y-53523810D03*
X155260498Y-43363810D03*
X155260498Y-61143810D03*
X137480505Y-43363810D03*
X140020505Y-48443810D03*
X157800498Y-45903810D03*
X134940505Y-43363810D03*
X147640505Y-53523810D03*
X157800498Y-43363810D03*
X132400505Y-58603810D03*
X142560505Y-63683810D03*
X132400505Y-53523810D03*
X155260498Y-48443810D03*
X132400505Y-66223810D03*
X127317856Y-48438511D03*
X137480505Y-66223810D03*
X134940505Y-63683810D03*
X127317856Y-56058511D03*
X157800498Y-56063810D03*
X157787933Y-50954346D03*
X147640505Y-45903810D03*
X142547940Y-50954346D03*
X127317856Y-43358511D03*
X137480505Y-53523810D03*
X155260498Y-66223810D03*
X145100505Y-63683810D03*
X134940505Y-48443810D03*
X147640505Y-43363810D03*
X152720498Y-43363810D03*
X129860505Y-40823810D03*
X134940505Y-58603810D03*
X142560505Y-45903810D03*
X134940505Y-56063810D03*
X132387940Y-50954346D03*
X150180505Y-58603810D03*
X155247933Y-50954346D03*
X137480505Y-56063810D03*
X132400505Y-63683810D03*
X157800498Y-58603810D03*
X134940505Y-45903810D03*
X140007940Y-50954346D03*
X147640505Y-66223810D03*
X142560505Y-66223810D03*
X142560505Y-53523810D03*
X155260498Y-53523810D03*
X129860505Y-48443810D03*
X134927940Y-50954346D03*
X137480505Y-40823810D03*
X145100505Y-53523810D03*
X127317856Y-66218511D03*
X140020505Y-66223810D03*
X129860505Y-56063810D03*
X152720498Y-48443810D03*
X129860505Y-53523810D03*
X142560505Y-56063810D03*
X150180505Y-63683810D03*
X150180505Y-43363810D03*
X150180505Y-48443810D03*
X150180505Y-61143810D03*
X157800498Y-66223810D03*
X137480505Y-48443810D03*
X157800498Y-53523810D03*
X155260498Y-40823810D03*
X129860505Y-43363810D03*
X147627940Y-50954346D03*
X155260498Y-63683810D03*
X127317856Y-61138511D03*
X129860505Y-58603810D03*
X134940505Y-61143810D03*
X132400505Y-61143810D03*
X137480505Y-63683810D03*
X132400505Y-56063810D03*
X155260498Y-58603810D03*
X150167940Y-50954346D03*
X157800498Y-48443810D03*
X140020505Y-61143810D03*
X142560505Y-48443810D03*
X150180505Y-56063810D03*
X147640505Y-61143810D03*
X132400505Y-43363810D03*
X137467940Y-50954346D03*
X152720498Y-40823810D03*
X127317856Y-68758511D03*
X132397856Y-68758511D03*
X129857856Y-68758511D03*
X134937856Y-68758511D03*
X142557856Y-68758511D03*
X150177856Y-68758511D03*
X147637856Y-68758511D03*
X145097856Y-68758511D03*
%TD*%
D24*
%TO.C,C3*%
X97042534Y-56744252D03*
X99252242Y-58953960D03*
%TD*%
D10*
%TO.C,J14*%
X138506200Y-78282800D03*
D11*
X138506200Y-75742800D03*
%TD*%
D25*
%TO.C,U3*%
X115722600Y-52134106D03*
X115722600Y-53404106D03*
X115722600Y-54674106D03*
X115722600Y-55944106D03*
X115722600Y-57214106D03*
X115722600Y-58484106D03*
X115722600Y-59754106D03*
X115722600Y-61024106D03*
X120929600Y-61024106D03*
X120929600Y-59754106D03*
X120929600Y-58484106D03*
X120929600Y-57214106D03*
X120929600Y-55944106D03*
X120929600Y-54674106D03*
X120929600Y-53404106D03*
X120929600Y-52134106D03*
%TD*%
D26*
%TO.C,Y1*%
X97917000Y-74269600D03*
X94466319Y-77720281D03*
%TD*%
D27*
%TO.C,R1*%
X141426600Y-75742800D03*
X144526600Y-75742800D03*
%TD*%
D10*
%TO.C,J3*%
X108736194Y-43134006D03*
D11*
X111276194Y-43134006D03*
%TD*%
D28*
%TO.C,R4*%
X138964000Y-71895306D03*
X135864000Y-71895306D03*
%TD*%
D20*
%TO.C,C9*%
X146685000Y-71432700D03*
X146685000Y-74557700D03*
%TD*%
D14*
%TO.C,J4*%
X92620188Y-43134006D03*
D13*
X92620188Y-40594006D03*
X95160188Y-43134006D03*
X95160188Y-40594006D03*
X97700188Y-43134006D03*
X97700188Y-40594006D03*
X100240188Y-43134006D03*
X100240188Y-40594006D03*
%TD*%
D29*
%TO.C,D1*%
X135154537Y-75857055D03*
X133174639Y-73877157D03*
%TD*%
D10*
%TO.C,J13*%
X142748000Y-81610200D03*
D11*
X142748000Y-79070200D03*
%TD*%
D30*
%TO.C,U1*%
X59996578Y-87668710D03*
X62536578Y-87668710D03*
X65076578Y-87668710D03*
X67616578Y-87668710D03*
X70156578Y-87668710D03*
X72696578Y-87668710D03*
X75236578Y-87668710D03*
X77776578Y-87668710D03*
X80316578Y-87668710D03*
X82856578Y-87668710D03*
X85396578Y-87668710D03*
X87936578Y-87668710D03*
X90476578Y-87668710D03*
X93016578Y-87668710D03*
X95556578Y-87668710D03*
X98096578Y-87668710D03*
X100636578Y-87668710D03*
X103176578Y-87668710D03*
X105716578Y-87668710D03*
X108256578Y-87668710D03*
X110796578Y-87668710D03*
X113336578Y-87668710D03*
X115876578Y-87668710D03*
X118416578Y-87668710D03*
X120956578Y-87668710D03*
X123496578Y-87668710D03*
X126036578Y-87668710D03*
X128576578Y-87668710D03*
X131116578Y-87668710D03*
X133656578Y-87668710D03*
X136196578Y-87668710D03*
X138736578Y-87668710D03*
X141276578Y-87668710D03*
X143816578Y-87668710D03*
X146356578Y-87668710D03*
X148896578Y-87668710D03*
X151436578Y-87668710D03*
X153976578Y-87668710D03*
X156516578Y-87668710D03*
X159056578Y-87668710D03*
X59996578Y-85128710D03*
X62536578Y-85128710D03*
X65076578Y-85128710D03*
X67616578Y-85128710D03*
X70156578Y-85128710D03*
X72696578Y-85128710D03*
X75236578Y-85128710D03*
X77776578Y-85128710D03*
X80316578Y-85128710D03*
X82856578Y-85128710D03*
X85396578Y-85128710D03*
X87936578Y-85128710D03*
X90476578Y-85128710D03*
X93016578Y-85128710D03*
X95556578Y-85128710D03*
X98096578Y-85128710D03*
X100636578Y-85128710D03*
X103176578Y-85128710D03*
X105716578Y-85128710D03*
X108256578Y-85128710D03*
X110796578Y-85128710D03*
X113336578Y-85128710D03*
X115876578Y-85128710D03*
X118416578Y-85128710D03*
X120956578Y-85128710D03*
X123496578Y-85128710D03*
X126036578Y-85128710D03*
X128576578Y-85128710D03*
X131116578Y-85128710D03*
X133656578Y-85128710D03*
X136196578Y-85128710D03*
X138736578Y-85128710D03*
X141276578Y-85128710D03*
X143816578Y-85128710D03*
X146356578Y-85128710D03*
X148896578Y-85128710D03*
X151436578Y-85128710D03*
X153976578Y-85128710D03*
X156516578Y-85128710D03*
X159056578Y-85128710D03*
%TD*%
D31*
%TO.C,J10*%
X64771788Y-57982221D03*
D13*
X62231788Y-57982221D03*
X64771788Y-55442221D03*
X62231788Y-55442221D03*
X64771788Y-52902221D03*
X62231788Y-52902221D03*
X64771788Y-50362221D03*
X62231788Y-50362221D03*
%TD*%
D32*
%TO.C,47uf1*%
X111421449Y-76312200D03*
D22*
X113421449Y-76312200D03*
%TD*%
D33*
%TO.C,C2*%
X84621934Y-52070560D03*
X86831642Y-49860852D03*
%TD*%
D34*
%TO.C,C11*%
X120078900Y-50076706D03*
X116953900Y-50076706D03*
%TD*%
D35*
%TO.C,U4*%
X142328900Y-71219907D03*
X142328900Y-71869906D03*
X142328900Y-72519905D03*
X144284700Y-72519905D03*
X144284700Y-71869906D03*
X144284700Y-71219907D03*
%TD*%
D19*
%TO.C,C1*%
X80073454Y-70218346D03*
X77863746Y-72428054D03*
%TD*%
D22*
%TO.C,C5*%
X103505000Y-74853800D03*
X108505000Y-74853800D03*
%TD*%
D10*
%TO.C,J1*%
X116306600Y-43134006D03*
D11*
X118846600Y-43134006D03*
X121386600Y-43134006D03*
%TD*%
D31*
%TO.C,J6*%
X64771788Y-77711906D03*
D13*
X62231788Y-77711906D03*
X64771788Y-75171906D03*
X62231788Y-75171906D03*
X64771788Y-72631906D03*
X62231788Y-72631906D03*
X64771788Y-70091906D03*
X62231788Y-70091906D03*
%TD*%
M02*
