M48
; DRILL file {KiCad 6.0.2+dfsg-1} date Sun 03 Mar 2024 12:29:14 PM CST
; FORMAT={-:-/ absolute / inch / decimal}
; #@! TF.CreationDate,2024-03-03T12:29:14-06:00
; #@! TF.GenerationSoftware,Kicad,Pcbnew,6.0.2+dfsg-1
; #@! TF.FileFunction,Plated,1,4,PTH
FMAT,2
INCH
; #@! TA.AperFunction,Plated,PTH,ViaDrill
T1C0.0157
; #@! TA.AperFunction,Plated,PTH,ComponentDrill
T2C0.0315
; #@! TA.AperFunction,Plated,PTH,ComponentDrill
T3C0.0350
; #@! TA.AperFunction,Plated,PTH,ComponentDrill
T4C0.0394
%
G90
G05
T1
X2.6321Y-2.6825
X2.6711Y-2.6535
X2.7261Y-2.6265
X2.7801Y-2.5965
X2.8391Y-2.5705
X2.8901Y-2.5535
X2.9391Y-2.5355
X2.9581Y-2.3365
X2.9611Y-2.3955
X3.055Y-2.511
X3.1416Y-2.823
X3.1416Y-2.897
X3.2442Y-2.3602
X3.2812Y-2.3252
X3.3204Y-2.2805
X3.3376Y-1.97
X3.3713Y-2.2473
X3.3751Y-2.0055
X3.38Y-2.6432
X3.4015Y-2.5375
X3.403Y-2.578
X3.445Y-2.585
X3.453Y-2.635
X3.4861Y-2.2133
X3.496Y-2.6734
X3.5083Y-2.2475
X3.5291Y-2.64
X3.5538Y-2.2756
X3.5682Y-2.6355
X3.5931Y-2.2735
X3.6099Y-2.634
X3.6276Y-3.0927
X3.6379Y-2.0915
X3.638Y-2.92
X3.6411Y-2.2755
X3.6528Y-2.333
X3.6566Y-3.066
X3.6759Y-3.1855
X3.6761Y-2.3901
X3.6801Y-2.3045
X3.6847Y-2.505
X3.6856Y-2.4474
X3.703Y-3.002
X3.7041Y-2.3616
X3.7119Y-2.4766
X3.7161Y-2.4186
X3.72Y-2.893
X3.743Y-2.97
X3.78Y-2.941
X3.8551Y-1.9519
X3.8611Y-2.2745
X3.8908Y-1.9683
X3.8964Y-1.8289
X3.8965Y-1.8683
X3.8973Y-1.7896
X3.8981Y-2.2315
X3.9165Y-1.9982
X3.946Y-2.5425
X3.958Y-2.5895
X4.072Y-2.5025
X4.117Y-2.2765
X4.172Y-2.5055
X4.2156Y-2.0951
X4.222Y-2.2735
X4.321Y-2.5065
X4.322Y-2.2735
X4.337Y-2.0665
X4.422Y-2.5045
X4.423Y-2.2735
X4.4681Y-2.4015
X4.472Y-2.5005
X4.548Y-2.5885
X4.628Y-2.6235
X4.6631Y-1.9715
X4.695Y-2.2025
X4.7029Y-2.3775
X4.7113Y-3.0753
X4.7129Y-2.9257
X4.7881Y-1.9515
X4.956Y-3.0955
X4.984Y-3.211
X4.9845Y-3.001
X4.9845Y-3.058
X5.1316Y-2.828
X5.2325Y-2.797
X5.414Y-2.8295
X5.4643Y-3.1607
X5.535Y-3.2472
X5.538Y-2.8565
X5.539Y-2.7995
X5.728Y-2.8845
X5.763Y-3.1765
X5.775Y-2.8725
X5.8115Y-3.4032
T2
X3.7191Y-3.0599
X3.855Y-2.924
X3.97Y-3.068
X4.075Y-2.947
X4.1669Y-3.068
X4.2719Y-2.947
X4.3867Y-3.0044
X4.4654Y-3.0044
T3
X2.3621Y-3.3515
X2.3621Y-3.4515
X2.4621Y-3.3515
X2.4621Y-3.4515
X2.5621Y-3.3515
X2.5621Y-3.4515
X2.6621Y-3.3515
X2.6621Y-3.4515
X2.7621Y-3.3515
X2.7621Y-3.4515
X2.8621Y-3.3515
X2.8621Y-3.4515
X2.9621Y-3.3515
X2.9621Y-3.4515
X3.0621Y-3.3515
X3.0621Y-3.4515
X3.1621Y-3.3515
X3.1621Y-3.4515
X3.2621Y-3.3515
X3.2621Y-3.4515
X3.3621Y-3.3515
X3.3621Y-3.4515
X3.4621Y-3.3515
X3.4621Y-3.4515
X3.5621Y-3.3515
X3.5621Y-3.4515
X3.6621Y-3.3515
X3.6621Y-3.4515
X3.7621Y-3.3515
X3.7621Y-3.4515
X3.8621Y-3.3515
X3.8621Y-3.4515
X3.9621Y-3.3515
X3.9621Y-3.4515
X4.0621Y-3.3515
X4.0621Y-3.4515
X4.1621Y-3.3515
X4.1621Y-3.4515
X4.2621Y-3.3515
X4.2621Y-3.4515
X4.3621Y-3.3515
X4.3621Y-3.4515
X4.4621Y-3.3515
X4.4621Y-3.4515
X4.5621Y-3.3515
X4.5621Y-3.4515
X4.6621Y-3.3515
X4.6621Y-3.4515
X4.7621Y-3.3515
X4.7621Y-3.4515
X4.8621Y-3.3515
X4.8621Y-3.4515
X4.9621Y-3.3515
X4.9621Y-3.4515
X5.0621Y-3.3515
X5.0621Y-3.4515
X5.1621Y-3.3515
X5.1621Y-3.4515
X5.2621Y-3.3515
X5.2621Y-3.4515
X5.3621Y-3.3515
X5.3621Y-3.4515
X5.4621Y-3.3515
X5.4621Y-3.4515
X5.5621Y-3.3515
X5.5621Y-3.4515
X5.6621Y-3.3515
X5.6621Y-3.4515
X5.7621Y-3.3515
X5.7621Y-3.4515
X5.8621Y-3.3515
X5.8621Y-3.4515
X5.9621Y-3.3515
X5.9621Y-3.4515
X6.0621Y-3.3515
X6.0621Y-3.4515
X6.1621Y-3.3515
X6.1621Y-3.4515
X6.2621Y-3.3515
X6.2621Y-3.4515
T4
X2.4501Y-1.9828
X2.4501Y-2.0828
X2.4501Y-2.1828
X2.4501Y-2.2828
X2.4501Y-2.7595
X2.4501Y-2.8595
X2.4501Y-2.9595
X2.4501Y-3.0595
X2.5501Y-1.9828
X2.5501Y-2.0828
X2.5501Y-2.1828
X2.5501Y-2.2828
X2.5501Y-2.7595
X2.5501Y-2.8595
X2.5501Y-2.9595
X2.5501Y-3.0595
X2.8665Y-1.5982
X2.8665Y-1.6982
X2.9665Y-1.5982
X2.9665Y-1.6982
X3.0665Y-1.5982
X3.0665Y-1.6982
X3.1665Y-1.5982
X3.1665Y-1.6982
X3.6465Y-1.5982
X3.6465Y-1.6982
X3.7465Y-1.5982
X3.7465Y-1.6982
X3.8465Y-1.5982
X3.8465Y-1.6982
X3.9465Y-1.5982
X3.9465Y-1.6982
X4.279Y-1.5982
X4.281Y-1.6982
X4.379Y-1.5982
X4.381Y-1.6982
X4.479Y-1.5982
X4.579Y-1.5982
X4.579Y-1.6982
X4.679Y-1.5982
X4.679Y-1.6982
X4.779Y-1.5982
X4.779Y-1.6982
X5.012Y-2.0059
X5.0125Y-1.607
X5.0125Y-1.707
X5.0125Y-1.807
X5.0125Y-1.907
X5.0125Y-2.107
X5.0125Y-2.207
X5.0125Y-2.307
X5.0125Y-2.407
X5.0125Y-2.507
X5.0125Y-2.607
X5.0125Y-2.707
X5.1121Y-2.0061
X5.1125Y-2.707
X5.1126Y-1.6072
X5.1126Y-1.7072
X5.1126Y-1.8072
X5.1126Y-1.9072
X5.1126Y-2.1072
X5.1126Y-2.2072
X5.1126Y-2.3072
X5.1126Y-2.4072
X5.1126Y-2.5072
X5.1126Y-2.6072
X5.2121Y-2.0061
X5.2125Y-2.707
X5.2126Y-1.6072
X5.2126Y-1.7072
X5.2126Y-1.8072
X5.2126Y-1.9072
X5.2126Y-2.1072
X5.2126Y-2.2072
X5.2126Y-2.3072
X5.2126Y-2.4072
X5.2126Y-2.5072
X5.2126Y-2.6072
X5.3121Y-2.0061
X5.3125Y-2.707
X5.3126Y-1.6072
X5.3126Y-1.7072
X5.3126Y-1.8072
X5.3126Y-1.9072
X5.3126Y-2.1072
X5.3126Y-2.2072
X5.3126Y-2.3072
X5.3126Y-2.4072
X5.3126Y-2.5072
X5.3126Y-2.6072
X5.4121Y-2.0061
X5.4126Y-1.6072
X5.4126Y-1.7072
X5.4126Y-1.8072
X5.4126Y-1.9072
X5.4126Y-2.1072
X5.4126Y-2.2072
X5.4126Y-2.3072
X5.4126Y-2.4072
X5.4126Y-2.5072
X5.4126Y-2.6072
X5.453Y-2.982
X5.453Y-3.082
X5.5121Y-2.0061
X5.5126Y-1.6072
X5.5126Y-1.7072
X5.5126Y-1.8072
X5.5126Y-1.9072
X5.5126Y-2.1072
X5.5126Y-2.2072
X5.5126Y-2.3072
X5.5126Y-2.4072
X5.5126Y-2.5072
X5.5126Y-2.6072
X5.6121Y-2.0061
X5.6125Y-2.707
X5.6126Y-1.6072
X5.6126Y-1.7072
X5.6126Y-1.8072
X5.6126Y-1.9072
X5.6126Y-2.1072
X5.6126Y-2.2072
X5.6126Y-2.3072
X5.6126Y-2.4072
X5.6126Y-2.5072
X5.6126Y-2.6072
X5.62Y-3.113
X5.62Y-3.213
X5.7121Y-2.0061
X5.7125Y-2.707
X5.7126Y-1.6072
X5.7126Y-1.7072
X5.7126Y-1.8072
X5.7126Y-1.9072
X5.7126Y-2.1072
X5.7126Y-2.2072
X5.7126Y-2.3072
X5.7126Y-2.4072
X5.7126Y-2.5072
X5.7126Y-2.6072
X5.8121Y-2.0061
X5.8125Y-2.707
X5.8126Y-1.6072
X5.8126Y-1.7072
X5.8126Y-1.8072
X5.8126Y-1.9072
X5.8126Y-2.1072
X5.8126Y-2.2072
X5.8126Y-2.3072
X5.8126Y-2.4072
X5.8126Y-2.5072
X5.8126Y-2.6072
X5.9121Y-2.0061
X5.9125Y-2.707
X5.9126Y-1.6072
X5.9126Y-1.7072
X5.9126Y-1.8072
X5.9126Y-1.9072
X5.9126Y-2.1072
X5.9126Y-2.2072
X5.9126Y-2.3072
X5.9126Y-2.4072
X5.9126Y-2.5072
X5.9126Y-2.6072
X6.0065Y-2.8782
X6.0065Y-2.9782
X6.0065Y-3.0782
X6.0121Y-2.0061
X6.0126Y-1.6072
X6.0126Y-1.7072
X6.0126Y-1.8072
X6.0126Y-1.9072
X6.0126Y-2.1072
X6.0126Y-2.2072
X6.0126Y-2.3072
X6.0126Y-2.4072
X6.0126Y-2.5072
X6.0126Y-2.6072
X6.1065Y-2.8782
X6.1065Y-2.9782
X6.1065Y-3.0782
X6.1121Y-2.0061
X6.1126Y-1.6072
X6.1126Y-1.7072
X6.1126Y-1.8072
X6.1126Y-1.9072
X6.1126Y-2.1072
X6.1126Y-2.2072
X6.1126Y-2.3072
X6.1126Y-2.4072
X6.1126Y-2.5072
X6.1126Y-2.6072
X6.2121Y-2.0061
X6.2126Y-1.6072
X6.2126Y-1.7072
X6.2126Y-1.8072
X6.2126Y-1.9072
X6.2126Y-2.1072
X6.2126Y-2.2072
X6.2126Y-2.3072
X6.2126Y-2.4072
X6.2126Y-2.5072
X6.2126Y-2.6072
T0
M30
