%TF.GenerationSoftware,KiCad,Pcbnew,6.0.2+dfsg-1*%
%TF.CreationDate,2024-03-03T12:29:16-06:00*%
%TF.ProjectId,rc-duino,72632d64-7569-46e6-9f2e-6b696361645f,rev?*%
%TF.SameCoordinates,Original*%
%TF.FileFunction,Soldermask,Bot*%
%TF.FilePolarity,Negative*%
%FSLAX46Y46*%
G04 Gerber Fmt 4.6, Leading zero omitted, Abs format (unit mm)*
G04 Created by KiCad (PCBNEW 6.0.2+dfsg-1) date 2024-03-03 12:29:16*
%MOMM*%
%LPD*%
G01*
G04 APERTURE LIST*
G04 Aperture macros list*
%AMRoundRect*
0 Rectangle with rounded corners*
0 $1 Rounding radius*
0 $2 $3 $4 $5 $6 $7 $8 $9 X,Y pos of 4 corners*
0 Add a 4 corners polygon primitive as box body*
4,1,4,$2,$3,$4,$5,$6,$7,$8,$9,$2,$3,0*
0 Add four circle primitives for the rounded corners*
1,1,$1+$1,$2,$3*
1,1,$1+$1,$4,$5*
1,1,$1+$1,$6,$7*
1,1,$1+$1,$8,$9*
0 Add four rect primitives between the rounded corners*
20,1,$1+$1,$2,$3,$4,$5,0*
20,1,$1+$1,$4,$5,$6,$7,0*
20,1,$1+$1,$6,$7,$8,$9,0*
20,1,$1+$1,$8,$9,$2,$3,0*%
G04 Aperture macros list end*
%ADD10R,1.700000X1.700000*%
%ADD11O,1.700000X1.700000*%
%ADD12RoundRect,0.250000X-0.600000X-0.600000X0.600000X-0.600000X0.600000X0.600000X-0.600000X0.600000X0*%
%ADD13C,1.700000*%
%ADD14RoundRect,0.250000X0.600000X-0.600000X0.600000X0.600000X-0.600000X0.600000X-0.600000X-0.600000X0*%
%ADD15C,1.600000*%
%ADD16O,2.000000X2.000000*%
%ADD17C,1.500000*%
%ADD18C,1.574800*%
%ADD19RoundRect,0.250000X0.600000X0.600000X-0.600000X0.600000X-0.600000X-0.600000X0.600000X-0.600000X0*%
%ADD20R,1.600000X1.600000*%
G04 APERTURE END LIST*
D10*
%TO.C,J2*%
X108686600Y-40594006D03*
D11*
X111226600Y-40594006D03*
X113766600Y-40594006D03*
X116306600Y-40594006D03*
X118846600Y-40594006D03*
X121386600Y-40594006D03*
%TD*%
D12*
%TO.C,J8*%
X152564188Y-73106006D03*
D13*
X155104188Y-73106006D03*
X152564188Y-75646006D03*
X155104188Y-75646006D03*
X152564188Y-78186006D03*
X155104188Y-78186006D03*
%TD*%
D14*
%TO.C,J5*%
X72808188Y-43134006D03*
D13*
X72808188Y-40594006D03*
X75348188Y-43134006D03*
X75348188Y-40594006D03*
X77888188Y-43134006D03*
X77888188Y-40594006D03*
X80428188Y-43134006D03*
X80428188Y-40594006D03*
%TD*%
D15*
%TO.C,C6*%
X100838000Y-77927200D03*
X105838000Y-77927200D03*
%TD*%
D16*
%TO.C,J7*%
X129860505Y-66223810D03*
X152707933Y-50954346D03*
X142560505Y-61143810D03*
X147640505Y-40823810D03*
X132400505Y-45903810D03*
X152720498Y-58603810D03*
X140020505Y-43363810D03*
X150180505Y-66223810D03*
X145087940Y-50954346D03*
X155260498Y-56063810D03*
X134940505Y-53523810D03*
X150180505Y-40823810D03*
X127305291Y-50949047D03*
X152720498Y-66223810D03*
X127317856Y-63678511D03*
X157800498Y-63683810D03*
X137480505Y-61143810D03*
X129847940Y-50954346D03*
X127317856Y-40818511D03*
X127317856Y-53518511D03*
X152720498Y-63683810D03*
X145100505Y-48443810D03*
X137480505Y-58603810D03*
X147640505Y-48443810D03*
X140020505Y-40823810D03*
X134940505Y-40823810D03*
X132400505Y-48443810D03*
X145100505Y-66223810D03*
X145100505Y-56063810D03*
X142560505Y-58603810D03*
X129860505Y-45903810D03*
X134940505Y-66223810D03*
X157800498Y-61143810D03*
X152720498Y-53523810D03*
X147640505Y-56063810D03*
X132400505Y-40823810D03*
X157800498Y-40823810D03*
X150180505Y-45903810D03*
X152720498Y-61143810D03*
X140020505Y-45903810D03*
X140020505Y-58603810D03*
X129860505Y-63683810D03*
X145100505Y-45903810D03*
X145100505Y-40823810D03*
X142560505Y-40823810D03*
X155260498Y-45903810D03*
X145100505Y-43363810D03*
X150180505Y-53523810D03*
X137480505Y-45903810D03*
X145100505Y-61143810D03*
X147640505Y-63683810D03*
X127317856Y-58598511D03*
X145100505Y-58603810D03*
X129860505Y-61143810D03*
X147640505Y-58603810D03*
X152720498Y-45903810D03*
X127317856Y-45898511D03*
X142560505Y-43363810D03*
X152720498Y-56063810D03*
X140020505Y-56063810D03*
X140020505Y-63683810D03*
X140020505Y-53523810D03*
X155260498Y-43363810D03*
X155260498Y-61143810D03*
X137480505Y-43363810D03*
X140020505Y-48443810D03*
X157800498Y-45903810D03*
X134940505Y-43363810D03*
X147640505Y-53523810D03*
X157800498Y-43363810D03*
X132400505Y-58603810D03*
X142560505Y-63683810D03*
X132400505Y-53523810D03*
X155260498Y-48443810D03*
X132400505Y-66223810D03*
X127317856Y-48438511D03*
X137480505Y-66223810D03*
X134940505Y-63683810D03*
X127317856Y-56058511D03*
X157800498Y-56063810D03*
X157787933Y-50954346D03*
X147640505Y-45903810D03*
X142547940Y-50954346D03*
X127317856Y-43358511D03*
X137480505Y-53523810D03*
X155260498Y-66223810D03*
X145100505Y-63683810D03*
X134940505Y-48443810D03*
X147640505Y-43363810D03*
X152720498Y-43363810D03*
X129860505Y-40823810D03*
X134940505Y-58603810D03*
X142560505Y-45903810D03*
X134940505Y-56063810D03*
X132387940Y-50954346D03*
X150180505Y-58603810D03*
X155247933Y-50954346D03*
X137480505Y-56063810D03*
X132400505Y-63683810D03*
X157800498Y-58603810D03*
X134940505Y-45903810D03*
X140007940Y-50954346D03*
X147640505Y-66223810D03*
X142560505Y-66223810D03*
X142560505Y-53523810D03*
X155260498Y-53523810D03*
X129860505Y-48443810D03*
X134927940Y-50954346D03*
X137480505Y-40823810D03*
X145100505Y-53523810D03*
X127317856Y-66218511D03*
X140020505Y-66223810D03*
X129860505Y-56063810D03*
X152720498Y-48443810D03*
X129860505Y-53523810D03*
X142560505Y-56063810D03*
X150180505Y-63683810D03*
X150180505Y-43363810D03*
X150180505Y-48443810D03*
X150180505Y-61143810D03*
X157800498Y-66223810D03*
X137480505Y-48443810D03*
X157800498Y-53523810D03*
X155260498Y-40823810D03*
X129860505Y-43363810D03*
X147627940Y-50954346D03*
X155260498Y-63683810D03*
X127317856Y-61138511D03*
X129860505Y-58603810D03*
X134940505Y-61143810D03*
X132400505Y-61143810D03*
X137480505Y-63683810D03*
X132400505Y-56063810D03*
X155260498Y-58603810D03*
X150167940Y-50954346D03*
X157800498Y-48443810D03*
X140020505Y-61143810D03*
X142560505Y-48443810D03*
X150180505Y-56063810D03*
X147640505Y-61143810D03*
X132400505Y-43363810D03*
X137467940Y-50954346D03*
X152720498Y-40823810D03*
X127317856Y-68758511D03*
X132397856Y-68758511D03*
X129857856Y-68758511D03*
X134937856Y-68758511D03*
X142557856Y-68758511D03*
X150177856Y-68758511D03*
X147637856Y-68758511D03*
X145097856Y-68758511D03*
%TD*%
D10*
%TO.C,J14*%
X138506200Y-78282800D03*
D11*
X138506200Y-75742800D03*
%TD*%
D17*
%TO.C,Y1*%
X97917000Y-74269600D03*
X94466319Y-77720281D03*
%TD*%
D10*
%TO.C,J3*%
X108736194Y-43134006D03*
D11*
X111276194Y-43134006D03*
%TD*%
D14*
%TO.C,J4*%
X92620188Y-43134006D03*
D13*
X92620188Y-40594006D03*
X95160188Y-43134006D03*
X95160188Y-40594006D03*
X97700188Y-43134006D03*
X97700188Y-40594006D03*
X100240188Y-43134006D03*
X100240188Y-40594006D03*
%TD*%
D10*
%TO.C,J13*%
X142748000Y-81610200D03*
D11*
X142748000Y-79070200D03*
%TD*%
D18*
%TO.C,U1*%
X59996578Y-87668710D03*
X62536578Y-87668710D03*
X65076578Y-87668710D03*
X67616578Y-87668710D03*
X70156578Y-87668710D03*
X72696578Y-87668710D03*
X75236578Y-87668710D03*
X77776578Y-87668710D03*
X80316578Y-87668710D03*
X82856578Y-87668710D03*
X85396578Y-87668710D03*
X87936578Y-87668710D03*
X90476578Y-87668710D03*
X93016578Y-87668710D03*
X95556578Y-87668710D03*
X98096578Y-87668710D03*
X100636578Y-87668710D03*
X103176578Y-87668710D03*
X105716578Y-87668710D03*
X108256578Y-87668710D03*
X110796578Y-87668710D03*
X113336578Y-87668710D03*
X115876578Y-87668710D03*
X118416578Y-87668710D03*
X120956578Y-87668710D03*
X123496578Y-87668710D03*
X126036578Y-87668710D03*
X128576578Y-87668710D03*
X131116578Y-87668710D03*
X133656578Y-87668710D03*
X136196578Y-87668710D03*
X138736578Y-87668710D03*
X141276578Y-87668710D03*
X143816578Y-87668710D03*
X146356578Y-87668710D03*
X148896578Y-87668710D03*
X151436578Y-87668710D03*
X153976578Y-87668710D03*
X156516578Y-87668710D03*
X159056578Y-87668710D03*
X59996578Y-85128710D03*
X62536578Y-85128710D03*
X65076578Y-85128710D03*
X67616578Y-85128710D03*
X70156578Y-85128710D03*
X72696578Y-85128710D03*
X75236578Y-85128710D03*
X77776578Y-85128710D03*
X80316578Y-85128710D03*
X82856578Y-85128710D03*
X85396578Y-85128710D03*
X87936578Y-85128710D03*
X90476578Y-85128710D03*
X93016578Y-85128710D03*
X95556578Y-85128710D03*
X98096578Y-85128710D03*
X100636578Y-85128710D03*
X103176578Y-85128710D03*
X105716578Y-85128710D03*
X108256578Y-85128710D03*
X110796578Y-85128710D03*
X113336578Y-85128710D03*
X115876578Y-85128710D03*
X118416578Y-85128710D03*
X120956578Y-85128710D03*
X123496578Y-85128710D03*
X126036578Y-85128710D03*
X128576578Y-85128710D03*
X131116578Y-85128710D03*
X133656578Y-85128710D03*
X136196578Y-85128710D03*
X138736578Y-85128710D03*
X141276578Y-85128710D03*
X143816578Y-85128710D03*
X146356578Y-85128710D03*
X148896578Y-85128710D03*
X151436578Y-85128710D03*
X153976578Y-85128710D03*
X156516578Y-85128710D03*
X159056578Y-85128710D03*
%TD*%
D19*
%TO.C,J10*%
X64771788Y-57982221D03*
D13*
X62231788Y-57982221D03*
X64771788Y-55442221D03*
X62231788Y-55442221D03*
X64771788Y-52902221D03*
X62231788Y-52902221D03*
X64771788Y-50362221D03*
X62231788Y-50362221D03*
%TD*%
D20*
%TO.C,47uf1*%
X111421449Y-76312200D03*
D15*
X113421449Y-76312200D03*
%TD*%
%TO.C,C5*%
X103505000Y-74853800D03*
X108505000Y-74853800D03*
%TD*%
D10*
%TO.C,J1*%
X116306600Y-43134006D03*
D11*
X118846600Y-43134006D03*
X121386600Y-43134006D03*
%TD*%
D19*
%TO.C,J6*%
X64771788Y-77711906D03*
D13*
X62231788Y-77711906D03*
X64771788Y-75171906D03*
X62231788Y-75171906D03*
X64771788Y-72631906D03*
X62231788Y-72631906D03*
X64771788Y-70091906D03*
X62231788Y-70091906D03*
%TD*%
M02*
